<svg width="501" height="113" viewBox="0 0 501 113" fill="none" xmlns="http://www.w3.org/2000/svg">
<path d="M25.973 106.22C27.6797 107.024 29.4867 107.626 31.3942 108.028C33.3017 108.43 35.2594 108.631 37.2673 108.631C41.5842 108.631 45.9011 107.676 50.2181 105.768C54.535 103.86 58.601 100.947 62.4159 97.0293L64.3736 108.631C61.9642 109.936 58.9524 110.991 55.3382 111.795C51.724 112.498 47.8086 112.849 43.5921 112.849C40.3795 112.849 37.1669 112.598 33.9543 112.096C30.7417 111.493 27.6295 110.64 24.6176 109.535C18.6944 107.224 13.8755 104.111 10.1609 100.193C6.44634 96.1756 3.73571 91.8062 2.02901 87.0853C0.422711 82.264 -0.229849 77.292 0.0713325 72.1693C0.372514 67.0467 1.57724 62.2253 3.68551 57.7053C5.89418 53.1853 8.95619 49.1676 12.8716 45.652C16.7869 42.1364 21.4552 39.5751 26.8765 37.968C31.2938 36.7627 35.3598 36.16 39.0744 36.16C44.4956 36.16 49.3145 37.2147 53.5311 39.324C57.848 41.4333 61.412 44.1453 64.223 47.46C67.0341 50.6742 69.0419 54.2902 70.2467 58.308C71.4514 62.3258 71.7526 66.2431 71.1502 70.06L10.1609 70.8133C9.85974 74.4293 9.96013 78.0453 10.4621 81.6613C10.9641 85.2773 11.8174 88.6924 13.0221 91.9067C14.3273 95.0204 16.034 97.8329 18.1422 100.344C20.3509 102.855 22.9611 104.814 25.973 106.22ZM59.7053 67.0467C60.0065 64.7364 59.6049 62.0244 58.5006 58.9107C57.4966 55.7969 55.8903 52.8338 53.6817 50.0213C51.473 47.2089 48.7122 44.8484 45.3992 42.94C42.0862 40.9311 38.3716 39.9267 34.2555 39.9267C30.4405 39.9267 27.1275 40.7302 24.3165 42.3373C21.5054 43.9444 19.1462 46.104 17.2387 48.816C15.3312 51.4276 13.8253 54.3907 12.721 57.7053C11.6166 61.02 10.8637 64.3849 10.4621 67.8L59.7053 67.0467Z" fill="white"/>
<path d="M77.4221 0H89.0176V113H77.4221V0Z" fill="white"/>
<path d="M134.188 0H145.783V54.9933H201.652V0H213.248V113H201.652V58.0067H145.783V113H134.188V0Z" fill="white"/>
<path d="M225.812 44.4467C227.217 43.3418 228.974 42.2871 231.082 41.2827C233.291 40.2782 235.7 39.4244 238.311 38.7213C241.021 37.9178 243.883 37.3151 246.894 36.9133C249.906 36.4111 252.968 36.16 256.08 36.16C259.895 36.16 263.61 36.5618 267.224 37.3653C270.838 38.1689 274.001 39.5751 276.711 41.584C279.522 43.4924 281.781 46.104 283.488 49.4187C285.195 52.6329 286.048 56.6507 286.048 61.472V113H274.453V106.22C271.541 108.53 268.63 110.238 265.718 111.343C262.807 112.347 259.494 112.849 255.779 112.849C247.848 112.849 241.172 111.544 235.751 108.932C230.329 106.32 226.263 103.056 223.553 99.1387C220.842 95.2213 219.437 91.0027 219.336 86.4827C219.336 81.9627 220.641 77.744 223.252 73.8267C225.962 69.9093 230.028 66.6449 235.45 64.0333C240.871 61.4218 247.647 60.116 255.779 60.116C258.992 60.116 262.154 60.6684 265.267 61.7733C268.479 62.7778 271.541 64.4351 274.453 66.7453V61.472C274.453 57.2533 274.051 53.7378 273.248 50.9253C272.445 48.0124 271.34 45.7022 269.935 43.9947C268.529 42.1867 266.873 40.8809 264.965 40.0773C263.058 39.2738 261 38.872 258.791 38.872C256.181 38.872 253.42 39.3742 250.509 40.3787C247.597 41.2827 244.736 42.5382 241.925 44.1453C239.214 45.7524 236.604 47.6107 234.094 49.72C231.685 51.7289 229.576 53.8382 227.769 56.048L225.812 44.4467ZM274.453 70.964C271.943 68.3524 269.081 66.3938 265.869 65.088C262.656 63.7822 259.293 63.1293 255.779 63.1293C250.258 63.1293 245.639 64.2844 241.925 66.5947C238.311 68.9049 235.55 71.8178 233.642 75.3333C231.835 78.7484 230.932 82.4649 230.932 86.4827C230.932 90.5004 231.835 94.2671 233.642 97.7827C235.55 101.198 238.311 104.06 241.925 106.371C245.639 108.681 250.258 109.836 255.779 109.836C257.486 109.836 259.393 109.484 261.502 108.781C263.61 108.078 265.618 106.923 267.525 105.316C269.533 103.709 271.19 101.6 272.495 98.988C273.8 96.276 274.453 93.0116 274.453 89.1947V70.964Z" fill="white"/>
<path d="M351.816 37.6667H359.346L327.421 113H315.373L283.749 37.6667H296.098L325.915 107.727L351.816 37.6667Z" fill="white"/>
<path d="M378.773 106.22C380.48 107.024 382.287 107.626 384.194 108.028C386.102 108.43 388.06 108.631 390.067 108.631C394.384 108.631 398.701 107.676 403.018 105.768C407.335 103.86 411.401 100.947 415.216 97.0293L417.174 108.631C414.764 109.936 411.753 110.991 408.138 111.795C404.524 112.498 400.609 112.849 396.392 112.849C393.18 112.849 389.967 112.598 386.754 112.096C383.542 111.493 380.43 110.64 377.418 109.535C371.495 107.224 366.676 104.111 362.961 100.193C359.247 96.1756 356.536 91.8062 354.829 87.0853C353.223 82.264 352.57 77.292 352.872 72.1693C353.173 67.0467 354.377 62.2253 356.486 57.7053C358.694 53.1853 361.756 49.1676 365.672 45.652C369.587 42.1364 374.255 39.5751 379.677 37.968C384.094 36.7627 388.16 36.16 391.875 36.16C397.296 36.16 402.115 37.2147 406.331 39.324C410.648 41.4333 414.212 44.1453 417.023 47.46C419.834 50.6742 421.842 54.2902 423.047 58.308C424.252 62.3258 424.553 66.2431 423.95 70.06L362.961 70.8133C362.66 74.4293 362.76 78.0453 363.262 81.6613C363.764 85.2773 364.618 88.6924 365.822 91.9067C367.127 95.0204 368.834 97.8329 370.942 100.344C373.151 102.855 375.761 104.814 378.773 106.22ZM412.505 67.0467C412.807 64.7364 412.405 62.0244 411.301 58.9107C410.297 55.7969 408.691 52.8338 406.482 50.0213C404.273 47.2089 401.512 44.8484 398.199 42.94C394.886 40.9311 391.172 39.9267 387.056 39.9267C383.241 39.9267 379.928 40.7302 377.117 42.3373C374.306 43.9444 371.946 46.104 370.039 48.816C368.131 51.4276 366.625 54.3907 365.521 57.7053C364.417 61.02 363.664 64.3849 363.262 67.8L412.505 67.0467Z" fill="white"/>
<path d="M489.405 66.444C489.405 61.7231 488.501 57.6049 486.694 54.0893C484.887 50.5738 482.527 47.7111 479.616 45.5013C476.805 43.2916 473.592 41.8351 469.978 41.132C466.465 40.3284 462.901 40.3284 459.286 41.132C455.773 41.9356 452.46 43.5929 449.347 46.104C446.235 48.5147 443.725 51.8293 441.818 56.048V113H430.222V37.6667H441.818V51.3773C444.328 46.9578 447.49 43.4422 451.305 40.8307C455.22 38.1187 459.337 36.3107 463.653 35.4067C468.071 34.4022 472.488 34.352 476.905 35.256C481.323 36.0596 485.288 37.7671 488.802 40.3787C492.416 42.8898 495.328 46.3551 497.536 50.7747C499.845 55.0938 501 60.3169 501 66.444V113H489.405V66.444Z" fill="white"/>
<path d="M49.9295 12.9071C51.6362 10.8982 52.9413 9.19066 53.8448 7.78444V6.27778H37.8822C36.7779 8.48756 35.3723 10.9987 33.6656 13.8111C31.959 16.5231 30.2021 19.1849 28.395 21.7964C26.6883 24.408 25.082 26.668 23.5761 28.5764V30.3844H32.3103C34.1174 28.9782 36.0249 27.3209 38.0328 25.4124C40.1411 23.4036 42.1991 21.3444 44.207 19.2351C46.3153 17.0253 48.2228 14.916 49.9295 12.9071Z" fill="white"/>
</svg>
