<svg width="266" height="66" viewBox="0 0 266 66" fill="none" xmlns="http://www.w3.org/2000/svg">
<path d="M39.264 52.6159C38.688 54.5359 37.76 56.2959 36.48 57.8959C35.264 59.4319 33.824 60.7759 32.16 61.9279C30.496 63.0159 28.672 63.8479 26.688 64.4239C24.768 64.9999 22.752 65.2879 20.64 65.2879C17.888 65.2879 15.264 64.7759 12.768 63.7519C10.272 62.6639 8.064 61.1919 6.144 59.3359C4.288 57.4799 2.784 55.3359 1.632 52.9039C0.544 50.4719 0 47.8479 0 45.0319C0 42.2799 0.48 39.6879 1.44 37.2559C2.4 34.8239 3.744 32.7119 5.472 30.9199C7.2 29.0639 9.216 27.6239 11.52 26.5999C13.888 25.5119 16.448 24.9679 19.2 24.9679C22.848 24.9679 25.92 25.6399 28.416 26.9839C30.912 28.2639 32.928 29.8639 34.464 31.7839C36 33.6399 37.088 35.6239 37.728 37.7359C38.432 39.8479 38.784 41.7359 38.784 43.3999H6.624C6.624 43.7199 6.592 44.0079 6.528 44.2639C6.528 44.4559 6.528 44.7119 6.528 45.0319C6.528 47.6559 6.976 50.0879 7.872 52.3279C8.768 54.5039 9.952 56.3919 11.424 57.9919C12.96 59.5919 14.688 60.8399 16.608 61.7359C18.592 62.6319 20.608 63.0799 22.656 63.0799C24.192 63.0799 25.76 62.8879 27.36 62.5039C28.96 62.1199 30.496 61.5119 31.968 60.6799C33.44 59.7839 34.784 58.6959 36 57.4159C37.216 56.0719 38.176 54.4719 38.88 52.6159H39.264ZM20.064 26.1199C18.4 26.1199 16.832 26.5359 15.36 27.3679C13.888 28.1359 12.544 29.2239 11.328 30.6319C10.176 32.0399 9.184 33.7039 8.352 35.6239C7.584 37.5439 7.072 39.5919 6.816 41.7679H33.024C32.832 40.4239 32.448 38.8559 31.872 37.0639C31.296 35.2719 30.496 33.5759 29.472 31.9759C28.448 30.3119 27.168 28.9359 25.632 27.8479C24.096 26.6959 22.24 26.1199 20.064 26.1199Z" fill="black"/>
<path d="M49.3703 59.6239C49.4343 61.2879 49.8183 62.4399 50.5223 63.0799C51.2903 63.6559 52.3783 63.9439 53.7863 63.9439V65.0959H38.9062V63.9439C40.3143 63.9439 41.4022 63.6559 42.1702 63.0799C42.9383 62.4399 43.3223 61.2879 43.3223 59.6239V7.0159C43.2583 6.4399 43.0983 5.9279 42.8423 5.4799C42.5863 5.0959 42.1702 4.7439 41.5942 4.4239C41.0822 4.0399 40.3142 3.8479 39.2902 3.8479L39.0023 2.6959L48.1222 0.391897H49.3703V59.6239Z" fill="black"/>
<path d="M115.697 59.5279C115.697 61.1919 116.081 62.3119 116.849 62.8879C117.617 63.4639 118.705 63.7519 120.113 63.7519V64.9999H105.232V63.7519C106.64 63.7519 107.729 63.4639 108.497 62.8879C109.265 62.3119 109.648 61.1919 109.648 59.5279V36.6799C109.648 35.3359 109.392 34.1199 108.881 33.0319C108.433 31.9439 107.793 30.9839 106.961 30.1519C106.129 29.3199 105.2 28.6799 104.176 28.2319C103.152 27.7839 102.128 27.5599 101.104 27.5599C99.5685 27.5599 98.1925 27.8159 96.9765 28.3279C95.7605 28.8399 94.7045 29.5119 93.8085 30.3439C92.9125 31.1119 92.1125 31.9759 91.4085 32.9359C90.7685 33.8959 90.2245 34.8559 89.7765 35.8159V59.5279C89.8405 61.1919 90.2245 62.3119 90.9285 62.8879C91.6965 63.4639 92.7845 63.7519 94.1925 63.7519V64.9999H79.3125V63.7519C80.7205 63.7519 81.8085 63.4639 82.5765 62.8879C83.3445 62.3119 83.7285 61.1919 83.7285 59.5279V6.8239C83.6645 6.2479 83.5045 5.7359 83.2485 5.2879C82.9925 4.9039 82.5765 4.5519 82.0005 4.2319C81.4885 3.8479 80.7205 3.6559 79.6965 3.6559L79.4085 2.5039L88.5285 0.295898H89.7765V33.9919C90.2245 32.9679 90.8005 31.9439 91.5045 30.9199C92.2725 29.8319 93.1365 28.8719 94.0965 28.0399C95.1205 27.1439 96.2725 26.4079 97.5525 25.8319C98.8325 25.2559 100.241 24.9679 101.777 24.9679C106.129 24.9679 109.521 26.0879 111.952 28.3279C114.448 30.5039 115.697 33.3839 115.697 36.9679V59.5279Z" fill="black"/>
<path d="M151.296 58.6639C151.296 60.5839 151.648 61.9279 152.352 62.6959C153.12 63.3999 154.144 63.7519 155.424 63.7519V64.9999H144.768V58.5679C144.32 59.3359 143.744 60.1039 143.04 60.8719C142.336 61.6399 141.504 62.3759 140.544 63.0799C139.648 63.7199 138.624 64.2639 137.472 64.7119C136.384 65.0959 135.168 65.2879 133.824 65.2879C131.648 65.2879 129.696 64.9999 127.968 64.4239C126.304 63.7839 124.864 62.9519 123.648 61.9279C122.496 60.8399 121.6 59.6239 120.96 58.2799C120.32 56.8719 120 55.3999 120 53.8639C120 50.2159 121.632 47.2079 124.896 44.8399C128.224 42.4719 133.024 41.2879 139.296 41.2879H144.768V39.5599C144.768 35.3999 144.192 32.1359 143.04 29.7679C141.952 27.3999 139.776 26.2159 136.512 26.2159C135.488 26.2159 134.496 26.4079 133.536 26.7919C132.576 27.1119 131.744 27.5919 131.04 28.2319C130.336 28.8079 129.76 29.5119 129.312 30.3439C128.928 31.1119 128.736 31.9759 128.736 32.9359C128.736 34.0239 128.448 34.8239 127.872 35.3359C127.296 35.8479 126.656 36.1039 125.952 36.1039C125.312 36.1039 124.704 35.8479 124.128 35.3359C123.616 34.8239 123.392 34.0559 123.456 33.0319C123.52 31.8159 124 30.7279 124.896 29.7679C125.792 28.7439 126.88 27.8799 128.16 27.1759C129.504 26.4719 130.912 25.9279 132.384 25.5439C133.856 25.1599 135.232 24.9679 136.512 24.9679C141.376 24.9679 145.056 26.2799 147.552 28.9039C150.048 31.5279 151.296 35.0799 151.296 39.5599V58.6639ZM144.768 42.4399H140.16C138.368 42.4399 136.64 42.6959 134.976 43.2079C133.376 43.7199 131.936 44.4559 130.656 45.4159C129.44 46.3759 128.448 47.5919 127.68 49.0639C126.912 50.4719 126.528 52.0719 126.528 53.8639C126.528 55.1439 126.72 56.3919 127.104 57.6079C127.552 58.7599 128.128 59.8159 128.832 60.7759C129.6 61.7359 130.464 62.5039 131.424 63.0799C132.448 63.6559 133.536 63.9439 134.688 63.9439C135.968 63.9439 137.568 63.4959 139.488 62.5999C141.408 61.6399 143.168 60.0079 144.768 57.7039V42.4399Z" fill="black"/>
<path d="M181.026 25.3519H191.298V26.5039C189.89 26.5039 188.706 26.8239 187.746 27.4639C186.786 28.0399 185.986 29.1599 185.346 30.8239C185.218 31.2719 184.93 32.1039 184.482 33.3199C184.034 34.5359 183.522 35.9759 182.946 37.6399C182.37 39.3039 181.73 41.1599 181.026 43.2079C180.322 45.1919 179.618 47.2079 178.914 49.2559C177.25 54.0559 175.426 59.3359 173.442 65.0959H167.106C165.058 59.3359 163.202 54.0559 161.538 49.2559C160.834 47.2079 160.13 45.1919 159.426 43.2079C158.722 41.1599 158.082 39.3039 157.506 37.6399C156.93 35.9759 156.418 34.5359 155.97 33.3199C155.586 32.1039 155.33 31.2719 155.202 30.8239C154.562 29.1599 153.762 28.0399 152.802 27.4639C151.842 26.8239 150.658 26.5039 149.25 26.5039V25.3519H164.514V26.5039C163.106 26.5039 162.114 26.8239 161.538 27.4639C161.026 28.0399 161.026 29.1599 161.538 30.8239C161.602 31.0799 161.858 31.9119 162.306 33.3199C162.818 34.6639 163.426 36.3599 164.13 38.4079C164.834 40.3919 165.602 42.5999 166.434 45.0319C167.266 47.4639 168.066 49.8319 168.834 52.1359C169.666 54.4399 170.434 56.5839 171.138 58.5679C171.842 60.5519 172.386 62.1199 172.77 63.2719C173.154 62.1199 173.698 60.5519 174.402 58.5679C175.106 56.5839 175.842 54.4399 176.61 52.1359C177.442 49.8319 178.274 47.4639 179.106 45.0319C179.938 42.5999 180.706 40.3919 181.41 38.4079C182.114 36.3599 182.69 34.6639 183.138 33.3199C183.65 31.9119 183.938 31.0799 184.002 30.8239C184.514 29.1599 184.482 28.0399 183.906 27.4639C183.394 26.8239 182.434 26.5039 181.026 26.5039V25.3519Z" fill="black"/>
<path d="M224.795 52.6159C224.219 54.5359 223.291 56.2959 222.011 57.8959C220.795 59.4319 219.355 60.7759 217.691 61.9279C216.027 63.0159 214.203 63.8479 212.219 64.4239C210.299 64.9999 208.283 65.2879 206.171 65.2879C203.419 65.2879 200.795 64.7759 198.299 63.7519C195.803 62.6639 193.595 61.1919 191.675 59.3359C189.819 57.4799 188.315 55.3359 187.163 52.9039C186.075 50.4719 185.531 47.8479 185.531 45.0319C185.531 42.2799 186.011 39.6879 186.971 37.2559C187.931 34.8239 189.275 32.7119 191.003 30.9199C192.731 29.0639 194.747 27.6239 197.051 26.5999C199.419 25.5119 201.979 24.9679 204.731 24.9679C208.379 24.9679 211.451 25.6399 213.947 26.9839C216.443 28.2639 218.459 29.8639 219.995 31.7839C221.531 33.6399 222.619 35.6239 223.259 37.7359C223.963 39.8479 224.315 41.7359 224.315 43.3999H192.155C192.155 43.7199 192.123 44.0079 192.059 44.2639C192.059 44.4559 192.059 44.7119 192.059 45.0319C192.059 47.6559 192.507 50.0879 193.403 52.3279C194.299 54.5039 195.483 56.3919 196.955 57.9919C198.491 59.5919 200.219 60.8399 202.139 61.7359C204.123 62.6319 206.139 63.0799 208.187 63.0799C209.723 63.0799 211.291 62.8879 212.891 62.5039C214.491 62.1199 216.027 61.5119 217.499 60.6799C218.971 59.7839 220.315 58.6959 221.531 57.4159C222.747 56.0719 223.707 54.4719 224.411 52.6159H224.795ZM205.595 26.1199C203.931 26.1199 202.363 26.5359 200.891 27.3679C199.419 28.1359 198.075 29.2239 196.859 30.6319C195.707 32.0399 194.715 33.7039 193.883 35.6239C193.115 37.5439 192.603 39.5919 192.347 41.7679H218.555C218.363 40.4239 217.979 38.8559 217.403 37.0639C216.827 35.2719 216.027 33.5759 215.003 31.9759C213.979 30.3119 212.699 28.9359 211.163 27.8479C209.627 26.6959 207.771 26.1199 205.595 26.1199Z" fill="black"/>
<path d="M260.822 59.6239C260.822 61.2879 261.206 62.4399 261.974 63.0799C262.742 63.6559 263.829 63.9439 265.237 63.9439V65.0959H250.357V63.9439C251.765 63.9439 252.854 63.6559 253.622 63.0799C254.39 62.4399 254.773 61.2879 254.773 59.6239V36.8719C254.773 35.5279 254.518 34.3119 254.006 33.2239C253.558 32.1359 252.917 31.1759 252.085 30.3439C251.253 29.5119 250.325 28.8719 249.301 28.4239C248.277 27.9759 247.254 27.7519 246.23 27.7519C244.694 27.7519 243.318 28.0079 242.102 28.5199C240.886 29.0319 239.83 29.6719 238.934 30.4399C238.038 31.2079 237.237 32.0719 236.533 33.0319C235.893 33.9919 235.35 34.9519 234.902 35.9119V59.6239C234.966 61.2879 235.349 62.4399 236.053 63.0799C236.821 63.6559 237.91 63.9439 239.318 63.9439V65.0959H224.438V63.9439C225.846 63.9439 226.934 63.6559 227.702 63.0799C228.47 62.4399 228.854 61.2879 228.854 59.6239V31.8799C228.79 31.3039 228.63 30.7919 228.374 30.3439C228.118 29.9599 227.702 29.6079 227.126 29.2879C226.614 28.9679 225.846 28.8079 224.822 28.8079L224.533 27.6559L233.654 25.3519H234.902V34.1839C235.35 33.1599 235.926 32.1039 236.63 31.0159C237.398 29.9279 238.261 28.9679 239.221 28.1359C240.245 27.2399 241.398 26.5039 242.678 25.9279C243.958 25.3519 245.366 25.0639 246.902 25.0639C251.254 25.0639 254.646 26.1839 257.078 28.4239C259.574 30.6639 260.822 33.5439 260.822 37.0639V59.6239Z" fill="black"/>
<path d="M25.1891 13.0249C25.9784 12.1082 26.5821 11.3291 27 10.6874V9.9999H19.6169C19.1061 11.0082 18.4561 12.1541 17.6667 13.4374C16.8773 14.6749 16.0647 15.8895 15.2289 17.0811C14.4395 18.2728 13.6965 19.3041 13 20.1749V20.9999H17.0398C17.8756 20.3582 18.7579 19.602 19.6866 18.7311C20.6617 17.8145 21.6136 16.8749 22.5423 15.9124C23.5174 14.9041 24.3997 13.9416 25.1891 13.0249Z" fill="black"/>
</svg>
