<svg width="266" height="65" viewBox="0 0 266 65" fill="none" xmlns="http://www.w3.org/2000/svg">
<path d="M39.264 52.32C38.688 54.24 37.76 56 36.48 57.6C35.264 59.136 33.824 60.48 32.16 61.632C30.496 62.72 28.672 63.552 26.688 64.128C24.768 64.704 22.752 64.992 20.64 64.992C17.888 64.992 15.264 64.48 12.768 63.456C10.272 62.368 8.064 60.896 6.144 59.04C4.288 57.184 2.784 55.04 1.632 52.608C0.544 50.176 0 47.552 0 44.736C0 41.984 0.48 39.392 1.44 36.96C2.4 34.528 3.744 32.416 5.472 30.624C7.2 28.768 9.216 27.328 11.52 26.304C13.888 25.216 16.448 24.672 19.2 24.672C22.848 24.672 25.92 25.344 28.416 26.688C30.912 27.968 32.928 29.568 34.464 31.488C36 33.344 37.088 35.328 37.728 37.44C38.432 39.552 38.784 41.44 38.784 43.104H6.624C6.624 43.424 6.592 43.712 6.528 43.968C6.528 44.16 6.528 44.416 6.528 44.736C6.528 47.36 6.976 49.792 7.872 52.032C8.768 54.208 9.952 56.096 11.424 57.696C12.96 59.296 14.688 60.544 16.608 61.44C18.592 62.336 20.608 62.784 22.656 62.784C24.192 62.784 25.76 62.592 27.36 62.208C28.96 61.824 30.496 61.216 31.968 60.384C33.44 59.488 34.784 58.4 36 57.12C37.216 55.776 38.176 54.176 38.88 52.32H39.264ZM20.064 25.824C18.4 25.824 16.832 26.24 15.36 27.072C13.888 27.84 12.544 28.928 11.328 30.336C10.176 31.744 9.184 33.408 8.352 35.328C7.584 37.248 7.072 39.296 6.816 41.472H33.024C32.832 40.128 32.448 38.56 31.872 36.768C31.296 34.976 30.496 33.28 29.472 31.68C28.448 30.016 27.168 28.64 25.632 27.552C24.096 26.4 22.24 25.824 20.064 25.824Z" fill="white"/>
<path d="M49.3703 59.328C49.4343 60.992 49.8183 62.144 50.5223 62.784C51.2903 63.36 52.3783 63.648 53.7863 63.648V64.8H38.9062V63.648C40.3143 63.648 41.4022 63.36 42.1702 62.784C42.9383 62.144 43.3223 60.992 43.3223 59.328V6.72C43.2583 6.144 43.0983 5.632 42.8423 5.184C42.5863 4.8 42.1702 4.448 41.5942 4.128C41.0822 3.744 40.3142 3.552 39.2902 3.552L39.0023 2.4L48.1222 0.0959988H49.3703V59.328Z" fill="white"/>
<path d="M115.697 59.232C115.697 60.896 116.081 62.016 116.849 62.592C117.617 63.168 118.705 63.456 120.113 63.456V64.704H105.232V63.456C106.64 63.456 107.729 63.168 108.497 62.592C109.265 62.016 109.648 60.896 109.648 59.232V36.384C109.648 35.04 109.392 33.824 108.881 32.736C108.433 31.648 107.793 30.688 106.961 29.856C106.129 29.024 105.2 28.384 104.176 27.936C103.152 27.488 102.128 27.264 101.104 27.264C99.5685 27.264 98.1925 27.52 96.9765 28.032C95.7605 28.544 94.7045 29.216 93.8085 30.048C92.9125 30.816 92.1125 31.68 91.4085 32.64C90.7685 33.6 90.2245 34.56 89.7765 35.52V59.232C89.8405 60.896 90.2245 62.016 90.9285 62.592C91.6965 63.168 92.7845 63.456 94.1925 63.456V64.704H79.3125V63.456C80.7205 63.456 81.8085 63.168 82.5765 62.592C83.3445 62.016 83.7285 60.896 83.7285 59.232V6.528C83.6645 5.952 83.5045 5.44 83.2485 4.992C82.9925 4.608 82.5765 4.256 82.0005 3.936C81.4885 3.552 80.7205 3.36 79.6965 3.36L79.4085 2.208L88.5285 0H89.7765V33.696C90.2245 32.672 90.8005 31.648 91.5045 30.624C92.2725 29.536 93.1365 28.576 94.0965 27.744C95.1205 26.848 96.2725 26.112 97.5525 25.536C98.8325 24.96 100.241 24.672 101.777 24.672C106.129 24.672 109.521 25.792 111.952 28.032C114.448 30.208 115.697 33.088 115.697 36.672V59.232Z" fill="white"/>
<path d="M151.296 58.368C151.296 60.288 151.648 61.632 152.352 62.4C153.12 63.104 154.144 63.456 155.424 63.456V64.704H144.768V58.272C144.32 59.04 143.744 59.808 143.04 60.576C142.336 61.344 141.504 62.08 140.544 62.784C139.648 63.424 138.624 63.968 137.472 64.416C136.384 64.8 135.168 64.992 133.824 64.992C131.648 64.992 129.696 64.704 127.968 64.128C126.304 63.488 124.864 62.656 123.648 61.632C122.496 60.544 121.6 59.328 120.96 57.984C120.32 56.576 120 55.104 120 53.568C120 49.92 121.632 46.912 124.896 44.544C128.224 42.176 133.024 40.992 139.296 40.992H144.768V39.264C144.768 35.104 144.192 31.84 143.04 29.472C141.952 27.104 139.776 25.92 136.512 25.92C135.488 25.92 134.496 26.112 133.536 26.496C132.576 26.816 131.744 27.296 131.04 27.936C130.336 28.512 129.76 29.216 129.312 30.048C128.928 30.816 128.736 31.68 128.736 32.64C128.736 33.728 128.448 34.528 127.872 35.04C127.296 35.552 126.656 35.808 125.952 35.808C125.312 35.808 124.704 35.552 124.128 35.04C123.616 34.528 123.392 33.76 123.456 32.736C123.52 31.52 124 30.432 124.896 29.472C125.792 28.448 126.88 27.584 128.16 26.88C129.504 26.176 130.912 25.632 132.384 25.248C133.856 24.864 135.232 24.672 136.512 24.672C141.376 24.672 145.056 25.984 147.552 28.608C150.048 31.232 151.296 34.784 151.296 39.264V58.368ZM144.768 42.144H140.16C138.368 42.144 136.64 42.4 134.976 42.912C133.376 43.424 131.936 44.16 130.656 45.12C129.44 46.08 128.448 47.296 127.68 48.768C126.912 50.176 126.528 51.776 126.528 53.568C126.528 54.848 126.72 56.096 127.104 57.312C127.552 58.464 128.128 59.52 128.832 60.48C129.6 61.44 130.464 62.208 131.424 62.784C132.448 63.36 133.536 63.648 134.688 63.648C135.968 63.648 137.568 63.2 139.488 62.304C141.408 61.344 143.168 59.712 144.768 57.408V42.144Z" fill="white"/>
<path d="M181.026 25.056H191.298V26.208C189.89 26.208 188.706 26.528 187.746 27.168C186.786 27.744 185.986 28.864 185.346 30.528C185.218 30.976 184.93 31.808 184.482 33.024C184.034 34.24 183.522 35.68 182.946 37.344C182.37 39.008 181.73 40.864 181.026 42.912C180.322 44.896 179.618 46.912 178.914 48.96C177.25 53.76 175.426 59.04 173.442 64.8H167.106C165.058 59.04 163.202 53.76 161.538 48.96C160.834 46.912 160.13 44.896 159.426 42.912C158.722 40.864 158.082 39.008 157.506 37.344C156.93 35.68 156.418 34.24 155.97 33.024C155.586 31.808 155.33 30.976 155.202 30.528C154.562 28.864 153.762 27.744 152.802 27.168C151.842 26.528 150.658 26.208 149.25 26.208V25.056H164.514V26.208C163.106 26.208 162.114 26.528 161.538 27.168C161.026 27.744 161.026 28.864 161.538 30.528C161.602 30.784 161.858 31.616 162.306 33.024C162.818 34.368 163.426 36.064 164.13 38.112C164.834 40.096 165.602 42.304 166.434 44.736C167.266 47.168 168.066 49.536 168.834 51.84C169.666 54.144 170.434 56.288 171.138 58.272C171.842 60.256 172.386 61.824 172.77 62.976C173.154 61.824 173.698 60.256 174.402 58.272C175.106 56.288 175.842 54.144 176.61 51.84C177.442 49.536 178.274 47.168 179.106 44.736C179.938 42.304 180.706 40.096 181.41 38.112C182.114 36.064 182.69 34.368 183.138 33.024C183.65 31.616 183.938 30.784 184.002 30.528C184.514 28.864 184.482 27.744 183.906 27.168C183.394 26.528 182.434 26.208 181.026 26.208V25.056Z" fill="white"/>
<path d="M224.795 52.32C224.219 54.24 223.291 56 222.011 57.6C220.795 59.136 219.355 60.48 217.691 61.632C216.027 62.72 214.203 63.552 212.219 64.128C210.299 64.704 208.283 64.992 206.171 64.992C203.419 64.992 200.795 64.48 198.299 63.456C195.803 62.368 193.595 60.896 191.675 59.04C189.819 57.184 188.315 55.04 187.163 52.608C186.075 50.176 185.531 47.552 185.531 44.736C185.531 41.984 186.011 39.392 186.971 36.96C187.931 34.528 189.275 32.416 191.003 30.624C192.731 28.768 194.747 27.328 197.051 26.304C199.419 25.216 201.979 24.672 204.731 24.672C208.379 24.672 211.451 25.344 213.947 26.688C216.443 27.968 218.459 29.568 219.995 31.488C221.531 33.344 222.619 35.328 223.259 37.44C223.963 39.552 224.315 41.44 224.315 43.104H192.155C192.155 43.424 192.123 43.712 192.059 43.968C192.059 44.16 192.059 44.416 192.059 44.736C192.059 47.36 192.507 49.792 193.403 52.032C194.299 54.208 195.483 56.096 196.955 57.696C198.491 59.296 200.219 60.544 202.139 61.44C204.123 62.336 206.139 62.784 208.187 62.784C209.723 62.784 211.291 62.592 212.891 62.208C214.491 61.824 216.027 61.216 217.499 60.384C218.971 59.488 220.315 58.4 221.531 57.12C222.747 55.776 223.707 54.176 224.411 52.32H224.795ZM205.595 25.824C203.931 25.824 202.363 26.24 200.891 27.072C199.419 27.84 198.075 28.928 196.859 30.336C195.707 31.744 194.715 33.408 193.883 35.328C193.115 37.248 192.603 39.296 192.347 41.472H218.555C218.363 40.128 217.979 38.56 217.403 36.768C216.827 34.976 216.027 33.28 215.003 31.68C213.979 30.016 212.699 28.64 211.163 27.552C209.627 26.4 207.771 25.824 205.595 25.824Z" fill="white"/>
<path d="M260.822 59.328C260.822 60.992 261.206 62.144 261.974 62.784C262.742 63.36 263.829 63.648 265.237 63.648V64.8H250.357V63.648C251.765 63.648 252.854 63.36 253.622 62.784C254.39 62.144 254.773 60.992 254.773 59.328V36.576C254.773 35.232 254.518 34.016 254.006 32.928C253.558 31.84 252.917 30.88 252.085 30.048C251.253 29.216 250.325 28.576 249.301 28.128C248.277 27.68 247.254 27.456 246.23 27.456C244.694 27.456 243.318 27.712 242.102 28.224C240.886 28.736 239.83 29.376 238.934 30.144C238.038 30.912 237.237 31.776 236.533 32.736C235.893 33.696 235.35 34.656 234.902 35.616V59.328C234.966 60.992 235.349 62.144 236.053 62.784C236.821 63.36 237.91 63.648 239.318 63.648V64.8H224.438V63.648C225.846 63.648 226.934 63.36 227.702 62.784C228.47 62.144 228.854 60.992 228.854 59.328V31.584C228.79 31.008 228.63 30.496 228.374 30.048C228.118 29.664 227.702 29.312 227.126 28.992C226.614 28.672 225.846 28.512 224.822 28.512L224.533 27.36L233.654 25.056H234.902V33.888C235.35 32.864 235.926 31.808 236.63 30.72C237.398 29.632 238.261 28.672 239.221 27.84C240.245 26.944 241.398 26.208 242.678 25.632C243.958 25.056 245.366 24.768 246.902 24.768C251.254 24.768 254.646 25.888 257.078 28.128C259.574 30.368 260.822 33.248 260.822 36.768V59.328Z" fill="white"/>
<path d="M25.1891 12.729C25.9784 11.8123 26.5821 11.0332 27 10.3915V9.704H19.6169C19.1061 10.7123 18.4561 11.8582 17.6667 13.1415C16.8773 14.379 16.0647 15.5936 15.2289 16.7852C14.4395 17.9769 13.6965 19.0082 13 19.879V20.704H17.0398C17.8756 20.0623 18.7579 19.3061 19.6866 18.4352C20.6617 17.5186 21.6136 16.579 22.5423 15.6165C23.5174 14.6082 24.3997 13.6457 25.1891 12.729Z" fill="white"/>
</svg>
